# xmcd CD database file
#
# Track frame offsets:
#	150
#	15375
#	29209
#	50118
#	68615
#	82438
#	100569
#	115934
#	131534
#	148674
#	167283
#	186844
#	204877
#	218825
#	237620
#	255876
#	277355
#	300329
#	317845
#	336689
#
# Disc length: 4733 seconds
#
# Revision: 2
# Processed by: cddbd v1.4PL0 Copyright (c) Steve Scherf et al.
# Submitted via: CDex 1.40Release
#
DISCID=2b127b14
DTITLE=KaoticEvil - Country Mix Vol. 2
DYEAR=1900
DGENRE=Country
TTITLE0=My List
TTITLE1=Right Where I Belong
TTITLE2=I Keep Looking
TTITLE3=I Breathe In, I Breathe Out
TTITLE4=Ten Rounds With Jose Cuervo
TTITLE5=Who's Your Daddy
TTITLE6=Chrome
TTITLE7=I Just Wanna Be Mad
TTITLE8=Landslide
TTITLE9=The Everclear Song
TTITLE10=I Hope You Dance
TTITLE11=Forgive
TTITLE12=I Wanna Talk About Me
TTITLE13=Not A Day Goes By
TTITLE14=Unbroken
TTITLE15=Wrapped Up In You
TTITLE16=Chain Of Love
TTITLE17=Help Me Understand
TTITLE18=Don't Take The Girl
TTITLE19=Tell Me Where It Hurts
EXTD=ID3G: 2
EXTT0=
EXTT1=
EXTT2=
EXTT3=
EXTT4=
EXTT5=
EXTT6=
EXTT7=
EXTT8=
EXTT9=
EXTT10=
EXTT11=
EXTT12=
EXTT13=
EXTT14=
EXTT15=
EXTT16=
EXTT17=
EXTT18=
EXTT19=
PLAYORDER=
